<svg viewBox="0 0 1200 200" width="100%" xmlns="http://www.w3.org/2000/svg">
  <defs>
    <linearGradient id="bg-tech" x1="0" y1="0" x2="1" y2="1">
      <stop offset="0%" stop-color="#020617"/>
      <stop offset="60%" stop-color="#070A2A"/>
      <stop offset="100%" stop-color="#020617"/>
    </linearGradient>
    <linearGradient id="accent-tech" x1="0" y1="0" x2="1" y2="0">
      <stop offset="0%" stop-color="#22D3EE"/>
      <stop offset="50%" stop-color="#6366F1"/>
      <stop offset="100%" stop-color="#A78BFA"/>
    </linearGradient>
    <filter id="glow-tech">
      <feGaussianBlur stdDeviation="3" result="b"/>
      <feMerge>
        <feMergeNode in="b"/>
        <feMergeNode in="SourceGraphic"/>
      </feMerge>
    </filter>
    <filter id="grain-tech">
      <feTurbulence type="fractalNoise" baseFrequency="0.85" numOctaves="1" seed="3"/>
      <feColorMatrix type="saturate" values="0"/>
      <feComponentTransfer>
        <feFuncA type="linear" slope="0.03"/>
      </feComponentTransfer>
    </filter>
    <style>
      .tech-title { font-family: Inter, system-ui, sans-serif; font-weight: 700; fill: #F8FAFC; font-size: 18px; }
      .tech-label { font-family: "JetBrains Mono", monospace; fill: #C7D2FE; font-size: 11px; opacity: 0.9; }
      .tech-icon { fill: #E2E8F0; }
    </style>
  </defs>
  
  <rect width="1200" height="200" fill="url(#bg-tech)" rx="12"/>
  <rect width="1200" height="200" filter="url(#grain-tech)" opacity="0.2" rx="12"/>
  
  <!-- Section Title -->
  <text x="600" y="35" text-anchor="middle" class="tech-title">💼 Technical Expertise</text>
  <rect x="500" y="45" width="200" height="2" rx="1" fill="url(#accent-tech)" opacity="0.7"/>
  
  <!-- Frontend -->
  <g transform="translate(80, 70)">
    <rect x="0" y="0" width="250" height="110" rx="10" fill="#0F172A" stroke="#1E293B" stroke-width="1"/>
    <text x="125" y="25" text-anchor="middle" class="tech-label" fill="url(#accent-tech)">FRONTEND</text>
    <g transform="translate(20, 45)">
      <circle cx="20" cy="15" r="12" fill="#61DAFB" opacity="0.9"/><text x="20" y="19" text-anchor="middle" font-size="10" fill="#000">⚛</text>
      <circle cx="70" cy="15" r="12" fill="#000" stroke="#fff"/><text x="70" y="19" text-anchor="middle" font-size="10" fill="#fff">N</text>
      <circle cx="120" cy="15" r="12" fill="#DD0031"/><text x="120" y="19" text-anchor="middle" font-size="10" fill="#fff">A</text>
      <circle cx="170" cy="15" r="12" fill="#3178C6"/><text x="170" y="19" text-anchor="middle" font-size="10" fill="#fff">TS</text>
    </g>
    <text x="125" y="95" text-anchor="middle" class="tech-label" font-size="9">React • Next.js • Angular • TypeScript</text>
  </g>
  
  <!-- Backend -->
  <g transform="translate(360, 70)">
    <rect x="0" y="0" width="250" height="110" rx="10" fill="#0F172A" stroke="#1E293B" stroke-width="1"/>
    <text x="125" y="25" text-anchor="middle" class="tech-label" fill="url(#accent-tech)">BACKEND</text>
    <g transform="translate(20, 45)">
      <circle cx="20" cy="15" r="12" fill="#512BD4"/><text x="20" y="19" text-anchor="middle" font-size="9" fill="#fff">.N</text>
      <circle cx="70" cy="15" r="12" fill="#6DB33F"/><text x="70" y="19" text-anchor="middle" font-size="10" fill="#fff">🍃</text>
      <circle cx="120" cy="15" r="12" fill="#E0234E"/><text x="120" y="19" text-anchor="middle" font-size="8" fill="#fff">Nest</text>
      <circle cx="170" cy="15" r="12" fill="#339933"/><text x="170" y="19" text-anchor="middle" font-size="10" fill="#fff">JS</text>
    </g>
    <text x="125" y="95" text-anchor="middle" class="tech-label" font-size="9">.NET • Spring Boot • NestJS • Node.js</text>
  </g>
  
  <!-- Database -->
  <g transform="translate(640, 70)">
    <rect x="0" y="0" width="250" height="110" rx="10" fill="#0F172A" stroke="#1E293B" stroke-width="1"/>
    <text x="125" y="25" text-anchor="middle" class="tech-label" fill="url(#accent-tech)">DATABASE</text>
    <g transform="translate(35, 45)">
      <circle cx="20" cy="15" r="12" fill="#4EA94B"/><text x="20" y="19" text-anchor="middle" font-size="8" fill="#fff">🍃</text>
      <circle cx="70" cy="15" r="12" fill="#336791"/><text x="70" y="19" text-anchor="middle" font-size="8" fill="#fff">PG</text>
      <circle cx="120" cy="15" r="12" fill="#00758F"/><text x="120" y="19" text-anchor="middle" font-size="8" fill="#fff">My</text>
      <circle cx="170" cy="15" r="12" fill="#DC382D"/><text x="170" y="19" text-anchor="middle" font-size="10" fill="#fff">R</text>
    </g>
    <text x="125" y="95" text-anchor="middle" class="tech-label" font-size="9">MongoDB • PostgreSQL • MySQL • Redis</text>
  </g>
  
  <!-- DevOps -->
  <g transform="translate(920, 70)">
    <rect x="0" y="0" width="200" height="110" rx="10" fill="#0F172A" stroke="#1E293B" stroke-width="1"/>
    <text x="100" y="25" text-anchor="middle" class="tech-label" fill="url(#accent-tech)">DEVOPS</text>
    <g transform="translate(30, 45)">
      <circle cx="20" cy="15" r="12" fill="#2496ED"/><text x="20" y="19" text-anchor="middle" font-size="8" fill="#fff">🐳</text>
      <circle cx="70" cy="15" r="12" fill="#F05032"/><text x="70" y="19" text-anchor="middle" font-size="10" fill="#fff">G</text>
      <circle cx="120" cy="15" r="12" fill="#000" stroke="#fff"/><text x="120" y="19" text-anchor="middle" font-size="10" fill="#fff">V</text>
    </g>
    <text x="100" y="95" text-anchor="middle" class="tech-label" font-size="9">Docker • Git • Vercel</text>
  </g>
</svg>
