<svg viewBox="0 0 1200 200" width="100%" xmlns="http://www.w3.org/2000/svg" style="display: block; margin: -2px 0;">
  <defs>
    <linearGradient id="bg-tech" x1="0" y1="0" x2="1" y2="1">
      <stop offset="0%" stop-color="#020617"/>
      <stop offset="60%" stop-color="#070A2A"/>
      <stop offset="100%" stop-color="#020617"/>
    </linearGradient>
    <linearGradient id="accent-tech" x1="0" y1="0" x2="1" y2="0">
      <stop offset="0%" stop-color="#22D3EE"/>
      <stop offset="50%" stop-color="#6366F1"/>
      <stop offset="100%" stop-color="#A78BFA"/>
    </linearGradient>
    <filter id="glow-tech">
      <feGaussianBlur stdDeviation="3" result="b"/>
      <feMerge>
        <feMergeNode in="b"/>
        <feMergeNode in="SourceGraphic"/>
      </feMerge>
    </filter>
    <filter id="grain-tech">
      <feTurbulence type="fractalNoise" baseFrequency="0.85" numOctaves="1" seed="3"/>
      <feColorMatrix type="saturate" values="0"/>
      <feComponentTransfer>
        <feFuncA type="linear" slope="0.03"/>
      </feComponentTransfer>
    </filter>
    <style>
      .tech-title { font-family: Inter, system-ui, sans-serif; font-weight: 900; fill: #FFFFFF; font-size: 26px; letter-spacing: -0.02em; }
      .tech-label { font-family: "JetBrains Mono", monospace; fill: #F8FAFC; font-size: 13px; opacity: 1; font-weight: 600; }
      .tech-icon { fill: #FFFFFF; }
    </style>
  </defs>
  
  <rect width="1200" height="200" fill="url(#bg-tech)"/>
  <rect width="1200" height="200" filter="url(#grain-tech)" opacity="0.3"/>
  
  <!-- Seamless connector from above -->
  <rect x="0" y="0" width="1200" height="1" fill="url(#accent-tech)" opacity="0.9"/>
  
  <!-- Section Title -->
  <text x="600" y="38" text-anchor="middle" class="tech-title">💼 Technical Expertise</text>
  <rect x="470" y="48" width="260" height="3" rx="1.5" fill="url(#accent-tech)" opacity="0.8">
    <animate attributeName="opacity" values="0.6;1;0.6" dur="3s" repeatCount="i334155" stroke-width="1.5"/>
    <rect x="0" y="0" width="250" height="3" rx="10" fill="url(#accent-tech)" opacity="0.5"/>
    <text x="125" y="28" text-anchor="middle" class="tech-label" fill="url(#accent-tech)" font-size="13
  
  <!-- Frontend -->
  <g transform="translate(80, 70)">
    <rect x="0" y="0" width="250" height="110" rx="10" fill="#0F172A" stroke="#1E293B" stroke-width="1"/>
    <text x="125" y="25" text-anchor="middle" class="tech-label" fill="url(#accent-tech)">FRONTEND</text>
    <g transform="translate(20, 45)">
      <circle cx="20" cy="15" r="12" fill="#61DAFB" opacity="0.9"/><text x="20" y="19" text-anchor="middle" font-size="10" fill="#000">⚛</text>
      <circle cx="70" cy="15" r="12" fill="#000" stroke="#fff"/><text x="70" y="19" text-anchor="middle" font-size="10" fill="#fff">N</text>
      <circle cx="120" cy="15" r="12" fill="#DD0031"/><text x="120" y="19" text-anchor="middle" font-size="10" fill="#fff">A</text>
      <circle cx="170" cy="15" r="12" fill="#3178C6"/><text x="170" y="19" text-anchor="middle" font-size="10" fill="#fff">TS</text>
    </g>334155" stroke-width="1.5"/>
    <rect x="0" y="0" width="250" height="3" rx="10" fill="url(#accent-tech)" opacity="0.5"/>
    <text x="125" y="28" text-anchor="middle" class="tech-label" fill="url(#accent-tech)" font-size="13ext.js • Angular • TypeScript</text>
  </g>
  
  <!-- Backend -->
  <g transform="translate(360, 70)">
    <rect x="0" y="0" width="250" height="110" rx="10" fill="#0F172A" stroke="#1E293B" stroke-width="1"/>
    <text x="125" y="25" text-anchor="middle" class="tech-label" fill="url(#accent-tech)">BACKEND</text>
    <g transform="translate(20, 45)">
      <circle cx="20" cy="15" r="12" fill="#512BD4"/><text x="20" y="19" text-anchor="middle" font-size="9" fill="#fff">.N</text>
      <circle cx="70" cy="15" r="12" fill="#6DB33F"/><text x="70" y="19" text-anchor="middle" font-size="10" fill="#fff">🍃</text>
      <circle cx="120" cy="15" r="12" fill="#E0234E"/><text x="120" y="19" text-anchor="middle" font-size="8" fill="#fff">Nest</text>
      <circle cx="170" cy="15" r="12" fill="#339933"/><text x="170" y="19" text334155" stroke-width="1.5"/>
    <rect x="0" y="0" width="250" height="3" rx="10" fill="url(#accent-tech)" opacity="0.5"/>
    <text x="125" y="28" text-anchor="middle" class="tech-label" fill="url(#accent-tech)" font-size="13
    <text x="125" y="95" text-anchor="middle" class="tech-label" font-size="9">.NET • Spring Boot • NestJS • Node.js</text>
  </g>
  
  <!-- Database -->
  <g transform="translate(640, 70)">
    <rect x="0" y="0" width="250" height="110" rx="10" fill="#0F172A" stroke="#475569" stroke-width="2"/>
    <rect x="0" y="0" width="250" height="4" fill="url(#accent-tech)" opacity="0.7"/>
    <text x="125" y="30" text-anchor="middle" class="tech-label" fill="url(#accent-tech)" font-size="14" font-weight="700">DATABASE</text>
    <g transform="translate(35, 45)">
      <circle cx="20" cy="15" r="14" fill="#4EA94B"/><text x="20" y="21" text-anchor="middle" font-size="10" fill="#fff">🍃</text>
      <circle cx="70" cy="15" r="14" fill="#336791"/><text x="70" y="20" text-anchor="middle" font-size="9" fill="#fff" font-weight="bold">PG</text>
      <circle cx="120" cy="15" r="14" fill="#00758F"/><text x="120" y="20" text-anchor="middle" font-size="9" fill="#fff" font-weight="bold">My</text>
      <circle cx="170" cy="15" r="14" fill="#DC382D"/><text x="170" y="21" text-anchor="middle" font-size="11" fill="#fff" font-weight="bold">R</text>
    </g>
    <text x="125" y="98" text-anchor="middle" class="tech-label" font-size="10">MongoDB • PostgreSQL • MySQL • Redis</text>
  </g>
  
  <!-- DevOps -->
  <g transform="translate(920, 70)">
    <rect x="0" y="0" width="200" height="110" rx="10" fill="#0F172A" stroke="#475569" stroke-width="2"/>
    <rect x="0" y="0" width="200" height="4" fill="url(#accent-tech)" opacity="0.7"/>
    <text x="100" y="30" text-anchor="middle" class="tech-label" fill="url(#accent-tech)" font-size="14" font-weight="700">DEVOPS</text>
    <g transform="translate(30, 45)">
      <circle cx="20" cy="15" r="14" fill="#2496ED"/><text x="20" y="21" text-anchor="middle" font-size="10" fill="#fff">🐳</text>
      <circle cx="70" cy="15" r="14" fill="#F05032"/><text x="70" y="21" text-anchor="middle" font-size="12" fill="#fff" font-weight="bold">G</text>
      <circle cx="120" cy="15" r="14" fill="#000" stroke="#fff" stroke-width="2"/><text x="120" y="21" text-anchor="middle" font-size="12" fill="#fff" font-weight="bold">V</text>
    </g>
    <text x="100" y="98" text-anchor="middle" class="tech-label" font-size="10">Docker • Git • Vercel</text>
  </g>
  
  <!-- Bottom connector -->
  <rect x="0" y="199" width="1200" height="1" fill="url(#accent-tech)" opacity="0.9"/>
</svg>
